<svg width="52" height="52" viewBox="0 0 52 52" fill="none" xmlns="http://www.w3.org/2000/svg">
<rect width="51.9316" height="51.9316" rx="8.05835" fill="url(#paint0_linear_32_2)"/>
<path d="M35.3672 24.6227H27.3088V16.5644C27.3088 16.2082 27.1673 15.8666 26.9155 15.6147C26.6636 15.3628 26.322 15.2213 25.9658 15.2213C25.6096 15.2213 25.268 15.3628 25.0161 15.6147C24.7642 15.8666 24.6227 16.2082 24.6227 16.5644V24.6227H16.5644C16.2082 24.6227 15.8666 24.7642 15.6147 25.0161C15.3628 25.268 15.2213 25.6096 15.2213 25.9658C15.2213 26.322 15.3628 26.6636 15.6147 26.9155C15.8666 27.1673 16.2082 27.3088 16.5644 27.3088H24.6227V35.3672C24.6227 35.7234 24.7642 36.065 25.0161 36.3169C25.268 36.5687 25.6096 36.7102 25.9658 36.7102C26.322 36.7102 26.6636 36.5687 26.9155 36.3169C27.1673 36.065 27.3088 35.7234 27.3088 35.3672V27.3088H35.3672C35.7234 27.3088 36.065 27.1673 36.3169 26.9155C36.5687 26.6636 36.7102 26.322 36.7102 25.9658C36.7102 25.6096 36.5687 25.268 36.3169 25.0161C36.065 24.7642 35.7234 24.6227 35.3672 24.6227Z" fill="white" fill-opacity="0.88"/>
<defs>
<linearGradient id="paint0_linear_32_2" x1="25.9658" y1="70.2867" x2="27.7565" y2="-18.8028" gradientUnits="userSpaceOnUse">
<stop stop-color="#0361EF"/>
<stop offset="1" stop-color="#00F0FF"/>
</linearGradient>
</defs>
</svg>
