<svg width="35" height="35" viewBox="0 0 35 35" fill="none" xmlns="http://www.w3.org/2000/svg">
<rect width="35" height="35" rx="17.5" fill="url(#paint0_linear_37_16)"/>
<path d="M23.958 14.1439L23.6429 23.8939C23.6161 24.7289 23.2721 25.5204 22.6839 26.1003C22.0957 26.6802 21.3096 27.0029 20.4925 27H14.5067C13.6901 27.003 12.9045 26.6807 12.3164 26.1015C11.7283 25.5222 11.3839 24.7316 11.3563 23.8971L11.0412 14.1439C11.0343 13.9304 11.1107 13.7227 11.2535 13.5667C11.3964 13.4107 11.5939 13.3191 11.8028 13.3121C12.0117 13.305 12.2148 13.3831 12.3674 13.5291C12.52 13.6752 12.6095 13.8772 12.6164 14.0908L12.9315 23.8431C12.9472 24.2595 13.12 24.6534 13.4138 24.9422C13.7075 25.2309 14.0992 25.3921 14.5067 25.3918H20.4925C20.9005 25.392 21.2927 25.2304 21.5865 24.941C21.8803 24.6515 22.0528 24.2568 22.0677 23.8399L22.3828 14.0908C22.3897 13.8772 22.4793 13.6752 22.6318 13.5291C22.7844 13.3831 22.9875 13.305 23.1964 13.3121C23.4053 13.3191 23.6029 13.4107 23.7457 13.5667C23.8885 13.7227 23.9649 13.9304 23.958 14.1439V14.1439ZM25 10.8993C25 11.1129 24.917 11.3178 24.7693 11.4688C24.6216 11.6198 24.4213 11.7047 24.2124 11.7047H10.7876C10.5787 11.7047 10.3784 11.6198 10.2307 11.4688C10.083 11.3178 10 11.1129 10 10.8993C10 10.6858 10.083 10.4809 10.2307 10.3299C10.3784 10.1789 10.5787 10.094 10.7876 10.094H13.2292C13.4787 10.0947 13.7196 10.0004 13.9049 9.82956C14.0903 9.65867 14.2068 9.4234 14.2318 9.16952C14.2899 8.57398 14.5628 8.0219 14.9973 7.62083C15.4318 7.21977 15.9967 6.99845 16.582 7.00001H18.4172C19.0025 6.99845 19.5674 7.21977 20.0019 7.62083C20.4364 8.0219 20.7093 8.57398 20.7674 9.16952C20.7924 9.4234 20.9089 9.65867 21.0943 9.82956C21.2796 10.0004 21.5205 10.0947 21.77 10.094H24.2116C24.4205 10.094 24.6208 10.1789 24.7685 10.3299C24.9162 10.4809 24.9992 10.6858 24.9992 10.8993H25ZM15.5991 10.094H19.4017C19.2982 9.85222 19.2305 9.59601 19.2008 9.33381C19.1813 9.1353 19.0904 8.95127 18.9458 8.81737C18.8012 8.68347 18.6131 8.60922 18.418 8.60903H16.5828C16.3877 8.60922 16.1996 8.68347 16.055 8.81737C15.9103 8.95127 15.8195 9.1353 15.7999 9.33381C15.77 9.59605 15.7021 9.85227 15.5983 10.094H15.5991ZM16.3922 22.2953V15.4381C16.3922 15.2245 16.3092 15.0197 16.1615 14.8686C16.0138 14.7176 15.8135 14.6328 15.6046 14.6328C15.3957 14.6328 15.1954 14.7176 15.0477 14.8686C14.9 15.0197 14.817 15.2245 14.817 15.4381V22.2986C14.817 22.5121 14.9 22.717 15.0477 22.868C15.1954 23.019 15.3957 23.1039 15.6046 23.1039C15.8135 23.1039 16.0138 23.019 16.1615 22.868C16.3092 22.717 16.3922 22.5121 16.3922 22.2986V22.2953ZM20.1838 22.2953V15.4381C20.1838 15.2245 20.1008 15.0197 19.9531 14.8686C19.8054 14.7176 19.6051 14.6328 19.3962 14.6328C19.1873 14.6328 18.9869 14.7176 18.8392 14.8686C18.6915 15.0197 18.6086 15.2245 18.6086 15.4381V22.2986C18.6086 22.5121 18.6915 22.717 18.8392 22.868C18.9869 23.019 19.1873 23.1039 19.3962 23.1039C19.6051 23.1039 19.8054 23.019 19.9531 22.868C20.1008 22.717 20.1838 22.5121 20.1838 22.2986V22.2953Z" fill="white"/>
<defs>
<linearGradient id="paint0_linear_37_16" x1="17.5" y1="0" x2="17.5" y2="35" gradientUnits="userSpaceOnUse">
<stop stop-color="#FF005C"/>
<stop offset="1" stop-color="#FF1A43"/>
</linearGradient>
</defs>
</svg>
